{"asset":{"version":"2.0","generator":"THREE.GLTFExporter r175"},"scenes":[{"name":"AuxScene","nodes":[6]}],"scene":0,"nodes":[{"mesh":0},{"mesh":1},{"matrix":[0.1414213562373095,0,-0.14142135623730953,0,0,-0.2,0,0,0.14142135623730953,0,0.1414213562373095,0,0,0,0,1],"children":[0,1]},{"children":[2]},{"matrix":[1,0,0,0,0,1,0,0,0,0,1,0,-39.77483033359811,50.2338493347168,39.20914494236636,1],"children":[3]},{"children":[4]},{"children":[5]}],"bufferViews":[{"buffer":0,"byteOffset":0,"byteLength":854064,"target":34962,"byteStride":12},{"buffer":0,"byteOffset":854064,"byteLength":569376,"target":34962,"byteStride":8},{"buffer":0,"byteOffset":1423440,"byteLength":854064,"target":34962,"byteStride":12},{"buffer":0,"byteOffset":2277504,"byteLength":207216,"target":34962,"byteStride":12},{"buffer":0,"byteOffset":2484720,"byteLength":138144,"target":34962,"byteStride":8},{"buffer":0,"byteOffset":2622864,"byteLength":207216,"target":34962,"byteStride":12}],"buffers":[{"byteLength":2830080,"uri":"data:application/octet-stream;base64,"}],"accessors":[{"bufferView":0,"componentType":5126,"count":71172,"max":[481.5116271972656,446.9134216308594,41.099998474121094],"min":[76.87486267089844,93.18305206298828,-0.6000000238418579],"type":"VEC3"},{"bufferView":1,"componentType":5126,"count":71172,"max":[477.9371643066406,441.9091491699219],"min":[81.8777847290039,-40.099998474121094],"type":"VEC2"},{"bufferView":2,"componentType":5126,"count":71172,"max":[0.9999734163284302,0.9996936321258545,1],"min":[-0.9999974370002747,-0.9999932646751404,-1],"type":"VEC3"},{"bufferView":3,"componentType":5126,"count":17268,"max":[319.3250427246094,113.49303436279297,41.099998474121094],"min":[266.07989501953125,55.5123291015625,-0.6000000238418579],"type":"VEC3"},{"bufferView":4,"componentType":5126,"count":17268,"max":[314.323486328125,108.4893569946289],"min":[62.5817756652832,-40.099998474121094],"type":"VEC2"},{"bufferView":5,"componentType":5126,"count":17268,"max":[0.9996927380561829,0.9993230104446411,1],"min":[-0.9998461604118347,-0.9978612065315247,-1],"type":"VEC3"}],"materials":[{"pbrMetallicRoughness":{"baseColorFactor":[0.6375968739867731,0.6653872982754769,0.7083757798856457,1],"metallicFactor":0.26,"roughnessFactor":0},"doubleSided":true,"extensions":{"KHR_materials_transmission":{"transmissionFactor":1},"KHR_materials_volume":{"thicknessFactor":0,"attenuationColor":[1,1,1]},"KHR_materials_clearcoat":{"clearcoatFactor":0.46,"clearcoatRoughnessFactor":0}}}],"meshes":[{"primitives":[{"mode":4,"attributes":{"POSITION":0,"TEXCOORD_0":1,"NORMAL":2},"material":0}]},{"primitives":[{"mode":4,"attributes":{"POSITION":3,"TEXCOORD_0":4,"NORMAL":5},"material":0}]}],"extensionsUsed":["KHR_materials_transmission","KHR_materials_volume","KHR_materials_clearcoat"]}