<?xml version="1.0" encoding="utf-8"?>
<!-- Generator: Adobe Illustrator 19.2.1, SVG Export Plug-In . SVG Version: 6.00 Build 0)  -->
<svg version="1.1" id="Layer_1" xmlns="http://www.w3.org/2000/svg" xmlns:xlink="http://www.w3.org/1999/xlink" x="0px" y="0px"
	 viewBox="0 0 500 500" style="enable-background:new 0 0 500 500;" xml:space="preserve">
<style type="text/css">
	.st0{fill:white;}
</style>
<g>
	<path class="st0" d="M259.2,322.4c-5,18.4-10.9,36.7-19.5,53.8c-6.4,12.7-20.9,41.9-38.6,40.2c-18.4-1.8-15.7-34.9-14.7-47.3
		c1.7-20.3,8.2-40.6,17.3-58.7c16.4-32.7,41.1-55.9,70.5-74.3l1-0.6C271.9,264.7,267,293.8,259.2,322.4 M467.3,155.5
		c-49.6-10.6-96.7,6.1-141.7,25.9c-6.8,3-13.7,6.1-20.5,9.2c0.7-9.8,1.4-19.7,1.9-29.5c0.4-7.9-0.5-15.6-7.9-20.2
		c-10.9-6.9-25.2-0.1-35.5,4.7c-31.5,14.7-62.4,34.4-89.9,55.5c-13.3,10.2-25.9,23.2-41.7,29.7c-5.6,2.3-11.7,3.7-16.9-0.1
		c-10-7.3-7.8-21.1-5.2-31.5c5.9-23.7,18.1-47.5,35.3-65.1c6.6-6.7,20.4-16.1,29.1-6.9c8.8,9.2-4.1,24.6-9.7,31.8
		c-10.1,13.1,12.3,26,22.2,13c12.6-16.5,22.7-38.8,9.6-58.2c-11.2-16.5-33.8-19.3-50.9-11.4c-19.4,8.9-33.3,29.5-43.4,47.6
		c-10.1,18.1-18.6,39.1-20.1,60c-1.3,18.8,7.8,38.6,25.9,46.1c14.7,6.1,30.4,1.1,43.6-6.4c13.4-7.6,24.7-18.1,36.8-27.5
		c18-13.9,37.6-26.1,57.4-37.2c9.9-5.6,19.6-11.7,29.9-16.6c1.1-0.5,3.1-1.2,5.1-1.9c-0.4,5.2-0.5,10.4-0.8,15.5
		c-0.5,7.3-1,14.6-1.6,21.9c-1.5,0.8-3.2,1.6-4.6,2.3l-0.6,0.2v0c-21.4,12.3-43.8,26.9-61.1,46.1c-27.5,30.4-45.8,69.6-50.8,110.4
		c-2.3,18.7-2.7,41.5,6.8,58.4c10.6,19,32.5,25.7,52.1,16.6c17.3-8.1,29.8-26.7,38.7-43c9.7-17.8,16.8-37,22.5-56.4
		c11.2-38.3,17.4-77.7,21.2-117.3l19.3-10.2c43-20.6,91.1-40.6,138.5-30.6C476.6,183.7,483.5,158.9,467.3,155.5"/>
	<path class="st0" d="M293.1,108.1c3.2-0.8,5.7-2.5,8.1-4.5c2.3-0.6,4.5-1.7,6-3.3c2-2,3.2-4.6,3.6-7.3c0.6-1.1,1.1-2.2,1.4-3.4
		c0.1-0.1,0.1-0.2,0.2-0.3c2.3-4.8,2.5-10.1,0.8-14.7c-0.1-4.2-2.3-8.2-6.2-10.7c-15.2-9.3-34.1,1.8-35.8,18.8
		c-0.7,7.1,1.7,14.5,6.5,19.9C281.6,107,287.2,109.5,293.1,108.1"/>
</g>
</svg>
